<svg width="18" height="18" viewBox="0 0 18 18" fill="none" xmlns="http://www.w3.org/2000/svg">
<path fill-rule="evenodd" clip-rule="evenodd" d="M9 6.091C7.64439 6.091 6.54545 7.18994 6.54545 8.54554C6.54545 9.90115 7.64439 11.0001 9 11.0001C10.3556 11.0001 11.4545 9.90115 11.4545 8.54554C11.4545 7.18994 10.3556 6.091 9 6.091ZM9 12.6365C6.74065 12.6365 4.90909 10.8049 4.90909 8.54554C4.90909 6.2862 6.74065 4.45463 9 4.45463C11.2593 4.45463 13.0909 6.2862 13.0909 8.54554C13.0909 10.8049 11.2593 12.6365 9 12.6365ZM9 2.40918C4.90909 2.40918 1.41545 4.95373 0 8.54554C1.41545 12.1374 4.90909 14.6819 9 14.6819C13.0909 14.6819 16.5845 12.1374 18 8.54554C16.5845 4.95373 13.0909 2.40918 9 2.40918Z" fill="#1E1F20"/>
<mask id="mask0_3_222" style="mask-type:luminance" maskUnits="userSpaceOnUse" x="0" y="2" width="18" height="13">
<path fill-rule="evenodd" clip-rule="evenodd" d="M9 6.091C7.64439 6.091 6.54545 7.18994 6.54545 8.54554C6.54545 9.90115 7.64439 11.0001 9 11.0001C10.3556 11.0001 11.4545 9.90115 11.4545 8.54554C11.4545 7.18994 10.3556 6.091 9 6.091ZM9 12.6365C6.74065 12.6365 4.90909 10.8049 4.90909 8.54554C4.90909 6.2862 6.74065 4.45463 9 4.45463C11.2593 4.45463 13.0909 6.2862 13.0909 8.54554C13.0909 10.8049 11.2593 12.6365 9 12.6365ZM9 2.40918C4.90909 2.40918 1.41545 4.95373 0 8.54554C1.41545 12.1374 4.90909 14.6819 9 14.6819C13.0909 14.6819 16.5845 12.1374 18 8.54554C16.5845 4.95373 13.0909 2.40918 9 2.40918Z" fill="white"/>
</mask>
<g mask="url(#mask0_3_222)">
</g>
</svg>
