<svg width="46" height="46" viewBox="0 0 46 46" fill="none" xmlns="http://www.w3.org/2000/svg">
<g clip-path="url(#clip0_63_44)">
<path d="M45.6929 34.0004C45.6818 33.9607 45.6646 33.9224 45.6417 33.8867L38.4004 23L45.6247 12.1183C45.6813 12.0294 45.7052 11.9275 45.6929 11.8264C45.6929 11.8264 45.6929 11.8265 45.6929 11.7918C45.6857 11.7323 45.6643 11.6746 45.63 11.6227C45.5958 11.5707 45.5494 11.5256 45.4939 11.4901L45.4542 11.4654C45.4034 11.4354 45.3479 11.4121 45.2893 11.3961C45.2478 11.3913 45.2058 11.3913 45.1643 11.3961H30.7271L23.5085 0.514402C23.4908 0.490804 23.4698 0.469203 23.446 0.450098C23.3937 0.393996 23.328 0.348535 23.2533 0.316918C23.1787 0.2853 23.097 0.268297 23.014 0.26709C22.932 0.26901 22.8514 0.286352 22.7778 0.317944C22.7043 0.349535 22.6394 0.394624 22.5877 0.450098C22.5639 0.469203 22.5429 0.490804 22.5252 0.514402L15.3066 11.3961H0.846729C0.730217 11.3978 0.617112 11.4306 0.522741 11.4901H0.494328C0.437474 11.5247 0.390755 11.5705 0.357919 11.6236C0.321938 11.6749 0.298707 11.7322 0.289715 11.7918C0.292853 11.8032 0.292853 11.815 0.289715 11.8264C0.279182 11.928 0.304993 12.0299 0.363609 12.1183L7.5822 23L0.363609 33.8817C0.304993 33.97 0.279182 34.072 0.289715 34.1735C0.292374 34.1833 0.292374 34.1935 0.289715 34.2032C0.298588 34.2644 0.3218 34.3233 0.357919 34.3763C0.407515 34.4511 0.478721 34.5132 0.564475 34.5566C0.650229 34.6 0.747536 34.6231 0.846729 34.6236H15.2896L22.5082 45.5054C22.5292 45.5385 22.556 45.5685 22.5877 45.5944V45.6191C22.6295 45.65 22.6753 45.6766 22.7241 45.6983H22.7867C22.8387 45.718 22.8948 45.7281 22.9515 45.728H22.997C23.0537 45.7281 23.1098 45.718 23.1618 45.6983H23.2243C23.274 45.6778 23.3199 45.6511 23.3607 45.6191V45.5944L23.4403 45.5054L30.6589 34.6236H45.0961C45.1963 34.624 45.2947 34.6013 45.3815 34.5579C45.4684 34.5144 45.5405 34.4518 45.5906 34.3763C45.6224 34.3221 45.6436 34.2636 45.6531 34.2032C45.6531 34.2032 45.6531 34.2032 45.6531 34.1735C45.6808 34.1191 45.6944 34.06 45.6929 34.0004ZM43.5898 32.7738L34.848 28.3815L37.7638 23.9892L43.5898 32.7738ZM23.5654 43.4082V29.0641H33.086L23.5654 43.4082ZM12.908 29.0641H22.4286V43.4082L12.908 29.0641ZM22.4286 2.59676V11.7423L11.9247 27.5703L8.88949 23L22.4286 2.59676ZM37.1045 23L34.075 27.5753L23.5654 11.7473V2.59181L37.1045 23ZM14.0448 28.0699L22.997 23.5737L31.9492 28.0699H14.0448ZM23.5654 13.7258L32.5176 27.2241L23.5654 22.723V13.7258ZM22.4286 22.723L13.4764 27.2241L22.4286 13.7258V22.723ZM34.848 17.6234L43.5955 13.2312L37.7638 22.0107L34.848 17.6234ZM43.0215 12.3755L34.2796 16.7677L31.3637 12.3755H43.0215ZM11.7144 16.7677L2.97251 12.3755H14.6302L11.7144 16.7677ZM2.40412 13.2312L11.146 17.6284L8.23014 22.0107L2.40412 13.2312ZM11.146 28.3914L2.40412 32.7886L8.23014 23.9892L11.146 28.3914ZM2.96682 33.6344L11.7144 29.2372L14.6302 33.6344H2.96682ZM34.2796 29.2372L43.0271 33.6344H31.3637L34.2796 29.2372Z" fill="#03004D"/>
<path d="M45.6938 34.0005C45.1254 33.0706 44.4774 32.1704 43.8749 31.2504L42.022 28.52L38.2819 23.0792L38.2365 23.0149L38.2819 22.9407L41.9367 17.2228L43.8124 14.3887L44.7502 12.974L45.222 12.2667L45.3357 12.0886L45.3925 12.0046C45.3947 11.9898 45.3947 11.9748 45.3925 11.96C45.4011 11.9258 45.4011 11.8904 45.3925 11.8562C45.3786 11.8239 45.3672 11.7909 45.3584 11.7573C45.329 11.735 45.3024 11.7101 45.2788 11.683C45.2616 11.6621 45.2426 11.6423 45.222 11.6237H45.1652H30.5461L30.4609 11.5L26.7038 5.83659L24.8281 3.00241L23.8902 1.58778L23.4185 0.88047C23.2423 0.603481 23.157 0.489718 22.9979 0.494664C22.8387 0.499611 22.7534 0.603481 22.5772 0.88047L22.1112 1.58778L21.1676 3.00241L19.292 5.83659L15.5349 11.5L15.4496 11.6237H0.790783C0.752739 11.6344 0.716442 11.6494 0.682787 11.6682C0.659256 11.6953 0.632582 11.7201 0.603204 11.7424C0.594456 11.776 0.583062 11.8091 0.569102 11.8413C0.560476 11.8755 0.560476 11.911 0.569102 11.9452C0.566962 11.96 0.566962 11.9749 0.569102 11.9897L0.625927 12.0738L0.745302 12.2519L1.21139 12.9592L2.14921 14.3738L4.03063 17.208L7.78769 22.8714L7.87293 22.9951L7.78769 23.1187L4.03063 28.7822L2.14921 31.6164L1.21139 33.031L0.739613 33.7383L0.625927 33.9164L0.569102 34.0054C0.56604 34.0185 0.56604 34.0319 0.569102 34.045C0.560476 34.0792 0.560476 34.1146 0.569102 34.1488C0.583062 34.1811 0.594456 34.2142 0.603204 34.2478C0.622764 34.2772 0.648964 34.3029 0.68022 34.3233C0.711477 34.3437 0.747148 34.3584 0.785094 34.3665H15.4496L15.5349 34.4901L19.292 40.1536L21.1676 42.9828L22.1112 44.4024L22.5772 45.1097L22.6966 45.2878L22.7534 45.3719C22.7696 45.3826 22.7831 45.3961 22.7932 45.4114C22.8212 45.4338 22.8517 45.4537 22.8842 45.4708C22.9191 45.4872 22.9582 45.4958 22.9979 45.4958C23.0376 45.4958 23.0766 45.4872 23.1115 45.4708C23.1115 45.4461 23.1798 45.4362 23.2082 45.4114L23.2423 45.3719L23.2991 45.2828L23.4185 45.1097L23.8902 44.4024L24.8281 42.9828L26.7038 40.1536L30.5575 34.5396L30.6143 34.4654H30.7109L38.4468 34.5643C39.737 34.5891 41.0273 34.594 42.3175 34.599H44.2557C44.574 34.599 44.898 34.599 45.222 34.599C45.3014 34.5906 45.3779 34.5678 45.4464 34.532C45.515 34.4962 45.5741 34.4483 45.6199 34.3912C45.6523 34.3272 45.6789 34.261 45.6995 34.1934C45.7074 34.1291 45.7055 34.0643 45.6938 34.0005ZM45.6938 34.0005C45.7022 34.0695 45.7022 34.1391 45.6938 34.2082C45.6739 34.2767 45.6453 34.3431 45.6085 34.4061C45.5639 34.4649 45.5053 34.5148 45.4366 34.5523C45.368 34.5899 45.2909 34.6142 45.2106 34.6237C44.8866 34.6237 44.5627 34.6237 44.2444 34.6237H42.3062C41.0178 34.6237 39.7276 34.6336 38.4354 34.6534L30.6996 34.7523L30.8474 34.6781L27.1869 40.391L25.3112 43.2203L24.3677 44.6398L23.9016 45.3471L23.7823 45.5252L23.7197 45.6142L23.6231 45.7527C23.539 45.8262 23.4409 45.8864 23.3332 45.9308C23.2271 45.9762 23.1104 45.9998 22.9922 45.9998C22.8739 45.9998 22.7573 45.9762 22.6511 45.9308C22.5455 45.8858 22.4494 45.8256 22.3669 45.7527L22.2589 45.634L22.1964 45.54L22.0827 45.3669L21.611 44.6596L20.6731 43.24L18.7918 40.4108L15.0347 34.7474L15.2848 34.871H0.841919C0.783333 34.8761 0.724305 34.8761 0.665719 34.871C0.547271 34.8504 0.435291 34.8079 0.337256 34.7465C0.239221 34.6851 0.157401 34.6061 0.0973266 34.5149C-0.0158059 34.3351 -0.0443417 34.1241 0.0177433 33.9263C0.0341105 33.8756 0.0590132 33.8272 0.0916371 33.7828L0.148497 33.6889L0.267837 33.5108L0.733923 32.8035L1.67747 31.3889L3.55316 28.5547L7.31592 22.8912V23.1385L3.55316 17.4751L1.67747 14.6409L0.739613 13.2263L0.267837 12.519L0.148497 12.3409L0.0916371 12.2519C0.0612772 12.2065 0.0365069 12.1584 0.0177433 12.1084C-0.0408289 11.9093 -0.0145784 11.6985 0.0916371 11.5149C0.221781 11.3383 0.425505 11.2124 0.66003 11.1637C0.720372 11.1565 0.781577 11.1565 0.841919 11.1637H15.2905L15.0404 11.2874L18.7975 5.62391L20.6788 2.78973L21.6167 1.37509L22.0884 0.667786L22.2021 0.489713L22.2646 0.400685C22.2978 0.35924 22.3339 0.319601 22.3726 0.28198C22.4505 0.204311 22.5466 0.142052 22.6545 0.0993941C22.7623 0.0567362 22.8794 0.034668 22.9979 0.034668C23.1161 0.0359117 23.2327 0.0585391 23.3404 0.101115C23.448 0.143691 23.5443 0.205284 23.6231 0.28198C23.6618 0.319601 23.6979 0.35924 23.7311 0.400685L23.7936 0.489713L23.913 0.667786L24.3791 1.37509L25.3169 2.78973L27.1983 5.62391L30.9554 11.2874L30.7109 11.1637H45.1538H45.33C45.4434 11.1913 45.5509 11.2347 45.6483 11.2923C45.7378 11.3579 45.818 11.4326 45.887 11.5149C45.9986 11.6971 46.0251 11.9097 45.9609 12.1084C45.9445 12.1591 45.9196 12.2075 45.887 12.2519L45.8302 12.3409L45.7108 12.519L45.2447 13.2263L44.3069 14.6458L42.4255 17.4751L38.5605 23.0841V22.9456L42.1129 28.4904L43.909 31.2504C44.5002 32.1605 45.1311 33.0656 45.6938 34.0005Z" fill="#03004D"/>
<path d="M43.5902 32.7738C42.9252 32.4622 42.226 32.1456 41.5099 31.839C41.1461 31.6807 40.7937 31.557 40.4072 31.3444L39.2704 30.8003C37.7358 30.0781 36.2125 29.3164 34.7233 28.5695L34.4789 28.4459L34.6209 28.2332L37.5368 23.8409L37.7812 23.47L38.0256 23.8409C39.0203 25.3248 40.015 26.8631 40.9756 28.3915L41.6918 29.5341L42.0555 30.1078C42.1692 30.2958 42.2601 30.4738 42.3625 30.6568C42.749 31.4087 43.1753 32.1011 43.5902 32.7738ZM43.5902 32.7738C43.0218 31.9824 42.4932 31.2257 41.9248 30.4788L41.5042 29.9297L41.1347 29.4005L40.3958 28.3519C39.4125 26.9521 38.469 25.5424 37.5198 24.113H38.0086L35.0984 28.5052L34.9904 28.1689C36.4114 28.8811 37.7983 29.5934 39.1852 30.3353L40.2253 30.8893C40.5664 31.0674 40.9358 31.3048 41.3052 31.5125C42.0442 31.9429 42.8001 32.3534 43.5902 32.7738Z" fill="#03004D"/>
<path d="M23.5656 43.4081C23.5656 42.2853 23.5087 41.1378 23.4519 39.9804C23.4519 39.3967 23.378 38.8328 23.3723 38.2146L23.3382 36.3845C23.2927 33.941 23.2814 31.4877 23.2814 29.0591V28.8118H33.5806L33.3362 29.1827C31.7277 31.6064 30.0907 34.0449 28.4367 36.4636L27.1919 38.269L26.5723 39.1741L25.9528 40.0348C25.1286 41.1625 24.3329 42.2903 23.5656 43.4081ZM23.5656 43.4081C24.3841 42.132 25.1741 40.8756 25.9414 39.6094L26.5098 38.6746L27.0782 37.7842L28.215 36.0036C29.7326 33.6393 31.273 31.2948 32.836 28.9354L33.0804 29.3064H23.5656L23.8498 29.0591C23.8498 31.4135 23.8497 33.7432 23.7929 36.0827L23.7588 37.8386C23.7588 38.4174 23.702 39.0505 23.6792 39.6638C23.6224 40.9004 23.5883 42.1419 23.5656 43.4081Z" fill="#03004D"/>
<path d="M12.9084 29.0592C14.4089 29.0147 15.9606 28.9553 17.5464 28.8712C17.9443 28.8712 18.3422 28.8267 18.7514 28.8218H22.7302V44.348L22.2016 43.5418L17.3702 36.2362L16.1823 34.4061L15.5798 33.491C15.3865 33.1844 15.2217 32.8876 15.0114 32.5859L12.9084 29.0592ZM12.9084 29.0592C13.7837 30.2957 14.6476 31.5323 15.5229 32.7046C15.7333 33.0013 15.9663 33.3031 16.1652 33.5949L16.7336 34.4753L17.9272 36.2362L22.6449 43.2846L22.1163 43.4082V29.0641L22.4005 29.3115H20.0872H18.9504C18.5639 29.3115 18.1717 29.2818 17.7738 29.262C16.2012 29.1696 14.5794 29.1021 12.9084 29.0592Z" fill="#03004D"/>
<path d="M22.4288 2.5918C22.4288 4.05094 22.5027 5.53481 22.5822 7.04341L22.7016 9.3632C22.7016 10.1447 22.7016 10.9361 22.7016 11.7176V11.7819L22.6618 11.8413L12.1579 27.6692L11.9135 28.0402L11.6634 27.6692L8.63389 23.094L8.54861 22.9703L8.63389 22.8466C10.9075 19.3843 13.2151 15.9615 15.5399 12.5387L17.2848 9.97157L18.1545 8.69052L19.0241 7.45396C20.212 5.85138 21.3488 4.20427 22.4288 2.5918ZM22.4288 2.5918C21.292 4.37244 20.1552 6.13329 19.0525 7.8991L18.2284 9.21482L17.4099 10.486L15.7672 13.0234C13.5789 16.4017 11.3679 19.7552 9.13408 23.1236V22.8763L12.1693 27.4516H11.6862L22.1957 11.6236L22.1559 11.7473C22.1559 11.0054 22.1559 10.2634 22.1559 9.53138L22.2696 7.27588C22.3549 5.74255 22.4117 4.20427 22.4288 2.5918Z" fill="#03004D"/>
<path d="M37.1046 22.9997L34.2627 27.669L34.0865 27.9608L33.8819 27.669C33.4215 27.021 32.944 26.383 32.5064 25.7202L31.1991 23.7417L28.5731 19.7847L23.3211 11.8707L23.2814 11.8163V1.67651L23.81 2.4778L30.6307 12.7412L32.3359 15.3083L33.1884 16.5894C33.4726 17.0197 33.7227 17.4501 33.9899 17.8804L37.1046 22.9997ZM37.1046 22.9997L33.484 17.9249C33.1884 17.5045 32.8758 17.084 32.5916 16.6636L31.7504 15.3924L30.0452 12.8599L23.3211 2.72016L23.8498 2.59651V11.7421L23.81 11.6184L29.0676 19.5324L31.6936 23.4894L33.0122 25.4679C33.4499 26.1257 33.8478 26.8083 34.2627 27.4761H33.8819L37.1046 22.9997Z" fill="#03004D"/>
<path d="M14.0451 28.0699C14.7328 27.7088 15.4206 27.3329 16.1254 26.9421L18.2512 25.7254C19.7858 24.9191 21.3205 24.1228 22.8552 23.3561L22.9973 23.2869L23.1394 23.3561L32.0915 27.8522L33.0123 28.3172H31.9494C28.9199 28.3172 25.8676 28.3172 22.8552 28.2628C21.3376 28.2628 19.7972 28.2281 18.308 28.1886C16.8188 28.149 15.4376 28.0946 14.0451 28.0699ZM14.0451 28.0699C15.6423 28.0699 17.1939 28.0105 18.7457 27.9462C20.2974 27.8819 21.7013 27.8967 23.1735 27.872C26.095 27.8324 29.0109 27.8226 31.9494 27.8226L31.8073 28.2825L22.8552 23.7864H23.1394C21.69 24.5185 20.2405 25.2258 18.7911 25.9183L16.4437 26.957C15.665 27.3081 14.8522 27.6791 14.0451 28.0699Z" fill="#03004D"/>
<path d="M23.5656 13.7158C24.2817 14.7496 25.032 15.8081 25.8391 16.8567C26.6463 17.9053 27.4022 19.1072 28.1809 20.235C29.744 22.5102 31.2786 24.8053 32.7963 27.0905L33.3249 27.8868L32.3756 27.4515L23.4235 22.9554L23.2814 22.8812V22.7377C23.2814 21.1995 23.2814 19.6464 23.3382 18.0883L23.486 15.8724C23.5258 15.1255 23.5485 14.4182 23.5656 13.7158ZM23.5656 13.7158C23.5656 14.5171 23.611 15.3085 23.6508 16.0851L23.7986 18.3702C23.8327 19.8096 23.8554 21.2539 23.8498 22.713L23.7077 22.5003L32.6598 26.9965L32.2733 27.3378C30.8012 25.1219 29.3575 22.9158 27.9365 20.695C27.2203 19.5722 26.5098 18.4791 25.7993 17.3266C25.0889 16.1741 24.3386 14.9375 23.5656 13.7158Z" fill="#03004D"/>
<path d="M22.4288 22.7133L20.32 23.9251C19.6038 24.3258 18.9047 24.7511 18.1601 25.1419L13.613 27.4271L12.6922 27.887L13.2265 27.0907L22.1843 13.6023L22.713 12.801V18.2913C22.713 19.0481 22.622 19.7752 22.5822 20.527L22.4288 22.7133ZM22.4288 22.7133L22.281 20.4133C22.2412 19.6516 22.173 18.8948 22.1502 18.1529V13.7012L22.6789 13.8249L13.7267 27.3232L13.3401 26.9819L17.7509 24.7709C18.5011 24.4148 19.2912 24.0883 20.0699 23.7371L22.4288 22.7133Z" fill="#03004D"/>
<path d="M34.8481 17.6134L36.8431 16.4362C37.1842 16.2384 37.5025 16.0207 37.8833 15.8377L39.0201 15.2689L43.4763 13.0035L44.3971 12.5386L43.8628 13.3448L38.0311 22.1343L37.7867 22.5053L37.5423 22.1343L36.7863 20.9917L36.4112 20.4229C36.2861 20.23 36.1952 20.0321 36.0872 19.8392L34.8481 17.6134ZM34.8481 17.6134C35.4165 18.3702 35.9849 19.0973 36.5533 19.7848C36.6897 19.9579 36.8375 20.1311 36.9568 20.2794L37.3092 20.8037L38.014 21.8623H37.5252L43.3513 13.1074L43.7378 13.4437L39.4464 15.5805L38.4005 16.0999C38.0538 16.2779 37.6389 16.4313 37.2638 16.5945L34.8481 17.6134Z" fill="#03004D"/>
<path d="M43.0216 12.3657C42.3793 12.712 41.7143 13.0829 41.055 13.4687C40.7139 13.6616 40.407 13.8644 40.0262 14.0623L38.8894 14.6558C37.4059 15.4472 35.894 16.2238 34.3991 16.9756L34.1547 17.0993L34.0126 16.8816L31.0968 12.4894L30.8523 12.1184H31.3412C33.3305 12.1184 35.3199 12.1184 37.3434 12.1679L38.8383 12.2025H39.5885C39.8386 12.2025 40.0603 12.2025 40.2933 12.2421C41.2426 12.3113 42.1463 12.341 43.0216 12.3657ZM43.0216 12.3657C41.9587 12.3657 40.9299 12.4201 39.9012 12.4745L39.1452 12.5141H38.4404L37.0194 12.5487C35.138 12.5883 33.2623 12.5982 31.3355 12.5982L31.5799 12.2272L34.4957 16.6195L34.1092 16.5304C35.5302 15.8182 36.9512 15.1257 38.3608 14.453L39.4351 13.9584C39.7818 13.7902 40.2024 13.627 40.5719 13.4638C41.4188 13.1076 42.2088 12.7515 43.0216 12.3657Z" fill="#03004D"/>
<path d="M11.7145 16.7579L9.54324 15.8477C9.17379 15.6845 8.80433 15.5559 8.40646 15.3531L7.26968 14.7991L2.79643 12.5684L1.86426 12.1084H15.0908L14.8407 12.4794L14.0847 13.617L13.7039 14.1858C13.5732 14.3738 13.4254 14.542 13.289 14.72L11.7145 16.7579ZM11.7145 16.7579C12.1749 15.9467 12.6126 15.1652 13.0275 14.3936C13.1298 14.2056 13.2264 14.0078 13.3401 13.8297L13.6868 13.3005L14.386 12.242L14.6304 12.6129H2.97263L3.11473 12.1529L7.37767 14.3194L8.44625 14.8585C8.79865 15.0316 9.15106 15.269 9.51483 15.4768L11.7145 16.7579Z" fill="#03004D"/>
<path d="M2.40427 13.2212C3.06929 13.5328 3.76843 13.8494 4.4846 14.156C4.84837 14.3143 5.20646 14.4429 5.58729 14.6507L6.72407 15.1947C8.25873 15.9169 9.78202 16.6786 11.2712 17.4205L11.5213 17.5442L11.3792 17.7618L8.46335 22.1541L8.21326 22.5251L7.96885 22.1541C6.97416 20.6702 5.97948 19.132 5.01889 17.6036L4.29702 16.4412L3.93324 15.8674C3.81956 15.6795 3.72863 15.5014 3.62632 15.3184C3.23982 14.5913 2.81919 13.8939 2.40427 13.2212ZM2.40427 13.2212C2.97266 14.0126 3.50126 14.7743 4.06965 15.5212L4.49029 16.0702L4.85973 16.5945L5.59863 17.6481C6.58195 19.0479 7.53117 20.4526 8.48038 21.887H7.98588L10.9017 17.4947L11.004 17.8311C9.58307 17.1188 8.19619 16.4066 6.80931 15.6646L5.77483 15.1107C5.42811 14.9326 5.05867 14.6902 4.68922 14.4825C3.9503 14.0571 3.18865 13.6416 2.40427 13.2212Z" fill="#03004D"/>
<path d="M11.1461 28.3815L9.15669 29.5637C8.80997 29.7615 8.49166 29.9742 8.11652 30.1621L6.97973 30.731L2.52356 32.9914L1.59708 33.4613L2.13137 32.6551L7.96308 23.8656L8.20748 23.4946L8.45758 23.8656L9.20786 25.0082L9.58298 25.577C9.70803 25.7699 9.79897 25.9678 9.90697 26.1607L11.1461 28.3815ZM11.1461 28.3815C10.5777 27.6297 10.0093 26.8976 9.44088 26.2151C9.31015 26.037 9.15671 25.8688 9.03735 25.7204L8.68491 25.1961L7.98011 24.1376H8.47461L2.64859 32.8925L2.26209 32.5512L6.57051 30.4194L7.64478 29.8901C7.9915 29.7071 8.40642 29.5587 8.78156 29.3955L11.1461 28.3815Z" fill="#03004D"/>
<path d="M2.96707 33.6344C3.61504 33.2882 4.28008 32.9172 4.93941 32.5314C5.28045 32.3385 5.58169 32.1308 5.96251 31.9379L7.0993 31.3443C8.58848 30.548 10.1004 29.7764 11.5953 29.0245L11.8397 28.9009L11.9818 29.1136L14.8977 33.5108L15.1478 33.8817H14.6532C12.6638 33.8817 10.6745 33.8818 8.651 33.8323L7.15047 33.7977H6.40018C6.15578 33.7977 5.93408 33.7977 5.70104 33.7581C4.75751 33.6888 3.84808 33.6592 2.96707 33.6344ZM2.96707 33.6344C4.03565 33.6344 5.06447 33.58 6.08758 33.5256L6.84351 33.486H7.554L8.97498 33.4514C10.8564 33.4119 12.7321 33.402 14.6305 33.402L14.3861 33.7729L11.4702 29.3757L11.8567 29.4697C10.4358 30.182 9.01479 30.8744 7.60517 31.5471L6.5309 32.0418C6.18418 32.2099 5.75789 32.3732 5.39412 32.5364C4.57563 32.8925 3.77987 33.2486 2.96707 33.6344Z" fill="#03004D"/>
<path d="M34.2796 29.2373L36.4509 30.1524C36.8204 30.3107 37.1955 30.4442 37.5877 30.647L38.7245 31.201L43.2034 33.4317L44.0844 33.8818H30.8693L31.1194 33.5109L31.881 32.3732L32.2562 31.8044C32.3869 31.6164 32.5404 31.4483 32.6768 31.2702L34.2796 29.2373ZM34.2796 29.2373C33.8193 30.0534 33.3816 30.835 32.9724 31.6066C32.8644 31.7945 32.7677 31.9924 32.6597 32.1704L32.3073 32.6997L31.6082 33.7582L31.3638 33.3872H43.0272L42.8851 33.8472L38.6165 31.6807L37.5536 31.1416C37.2012 30.9685 36.8431 30.7311 36.485 30.5233L34.2796 29.2373Z" fill="#03004D"/>
</g>
<defs>
<clipPath id="clip0_63_44">
<rect width="46" height="46" fill="white"/>
</clipPath>
</defs>
</svg>
